<svg xmlns="http://www.w3.org/2000/svg" width="128" height="128" viewBox="0 0 128 128" version="1.1"><path d="M 85.734 42.750 C 84.868 43.712, 77.381 62.929, 69.098 85.453 C 57.861 116.007, 54.350 126.620, 55.269 127.250 C 56.503 128.097, 74.511 127.822, 75.391 126.943 C 75.648 126.685, 82.812 107.805, 91.311 84.987 C 102.250 55.616, 106.470 43.135, 105.759 42.250 C 105.094 41.422, 101.809 41, 96.033 41 C 88.992 41, 87.006 41.338, 85.734 42.750 M 50.580 58.250 C 48.860 60.891, 29 114.703, 29 116.724 C 29 118.044, 41.556 124.556, 45.328 125.192 C 46.877 125.453, 49.059 120.379, 59.596 92.017 C 66.438 73.602, 71.817 57.964, 71.549 57.267 C 71.204 56.367, 68.308 56, 61.554 56 C 52.795 56, 51.931 56.177, 50.580 58.250 M 17.199 71.261 C 16.623 71.954, 14.282 77.531, 11.996 83.654 L 7.840 94.787 10.320 98.714 C 13.216 103.303, 22.623 113.730, 23.208 113 C 24.229 111.726, 38.020 73.295, 38.010 71.750 C 38.001 70.202, 36.859 70, 28.122 70 C 21.395 70, 17.911 70.402, 17.199 71.261" stroke="none" fill="#f9fafa" fill-rule="evenodd"/><path d="M 48.566 1.602 C 45.303 2.391, 39.228 4.667, 35.066 6.660 C 24.444 11.746, 11.757 24.421, 6.685 35.015 C -1.759 52.649, -2.283 72.856, 5.255 90.057 L 7.605 95.418 11.878 83.970 C 14.229 77.673, 16.623 71.954, 17.199 71.261 C 17.911 70.402, 21.395 70, 28.122 70 C 36.996 70, 38 70.184, 38 71.814 C 38 72.812, 34.637 82.600, 30.527 93.564 L 23.054 113.500 25.751 115.716 L 28.447 117.932 29.584 114.216 C 32.152 105.825, 49.216 60.333, 50.577 58.250 C 51.930 56.177, 52.796 56, 61.554 56 C 68.308 56, 71.204 56.367, 71.549 57.267 C 71.817 57.964, 66.443 73.602, 59.608 92.017 C 51.128 114.863, 47.549 125.695, 48.340 126.112 C 50.159 127.073, 56.647 128.092, 55.269 127.201 C 54.358 126.612, 57.958 115.745, 69.098 85.453 C 77.381 62.929, 84.868 43.712, 85.734 42.750 C 87.006 41.338, 88.992 41, 96.033 41 C 101.809 41, 105.094 41.422, 105.759 42.250 C 106.470 43.135, 102.261 55.587, 91.349 84.884 C 82.872 107.646, 76.161 126.494, 76.436 126.770 C 77.415 127.748, 91.026 122.716, 97.065 119.143 C 110.368 111.274, 123.098 94.218, 126.083 80.266 C 126.761 77.095, 127.695 74.072, 128.158 73.550 C 129.235 72.334, 129.270 52.715, 128.194 53.380 C 127.750 53.654, 126.868 51.403, 126.233 48.377 C 124.005 37.754, 118.511 28.294, 109.109 18.891 C 99.581 9.364, 90.892 4.364, 78.985 1.558 C 70.971 -0.331, 56.470 -0.310, 48.566 1.602 M 0.370 64 C 0.370 69.775, 0.535 72.138, 0.737 69.250 C 0.939 66.362, 0.939 61.638, 0.737 58.750 C 0.535 55.862, 0.370 58.225, 0.370 64 M 13.500 104 C 13.840 104.550, 14.343 105, 14.618 105 C 14.893 105, 14.840 104.550, 14.500 104 C 14.160 103.450, 13.657 103, 13.382 103 C 13.107 103, 13.160 103.450, 13.500 104 M 72.333 127.667 C 72.700 128.033, 73.300 128.033, 73.667 127.667 C 74.033 127.300, 73.733 127, 73 127 C 72.267 127, 71.967 127.300, 72.333 127.667" stroke="none" fill="#0c4c94" fill-rule="evenodd"/></svg>